<?xml version="1.0" encoding="UTF-8"?>
<svg width="16px" height="16px" version="1.1" viewBox="0 0 16 16" xmlns="http://www.w3.org/2000/svg"><filter id="a" x="0" y="0" width="1" height="1"><feColorMatrix in="SourceGraphic" values="0 0 0 0 1 0 0 0 0 1 0 0 0 0 1 0 0 0 1 0"/></filter><mask id="b"><g filter="url(#a)"><path d="m0 0h16v16h-16z" fill-opacity=".3"/></g></mask><clipPath id="c"><path d="m0 0h1024v800h-1024z"/></clipPath><mask id="d"><g filter="url(#a)"><path d="m0 0h16v16h-16z" fill-opacity=".05"/></g></mask><clipPath id="e"><path d="m0 0h1024v800h-1024z"/></clipPath><mask id="f"><g filter="url(#a)"><path d="m0 0h16v16h-16z" fill-opacity=".05"/></g></mask><clipPath id="g"><path d="m0 0h1024v800h-1024z"/></clipPath><mask id="h"><g filter="url(#a)"><path d="m0 0h16v16h-16z" fill-opacity=".05"/></g></mask><clipPath id="i"><path d="m0 0h1024v800h-1024z"/></clipPath><mask id="j"><g filter="url(#a)"><path d="m0 0h16v16h-16z" fill-opacity=".05"/></g></mask><clipPath id="k"><path d="m0 0h1024v800h-1024z"/></clipPath><mask id="l"><g filter="url(#a)"><path d="m0 0h16v16h-16z" fill-opacity=".05"/></g></mask><clipPath id="m"><path d="m0 0h1024v800h-1024z"/></clipPath><mask id="n"><g filter="url(#a)"><path d="m0 0h16v16h-16z" fill-opacity=".05"/></g></mask><clipPath id="o"><path d="m0 0h1024v800h-1024z"/></clipPath><mask id="p"><g filter="url(#a)"><path d="m0 0h16v16h-16z" fill-opacity=".3"/></g></mask><clipPath id="q"><path d="m0 0h1024v800h-1024z"/></clipPath><mask id="r"><g filter="url(#a)"><path d="m0 0h16v16h-16z" fill-opacity=".5"/></g></mask><clipPath id="s"><path d="m0 0h1024v800h-1024z"/></clipPath><g transform="translate(-768.79 -3165.9)"><g transform="translate(42 -160)" fill="#2e3436"><path d="m729.1 3328.9h4.375c0.17314 0 0.3125 0.223 0.3125 0.5v1c0 0.277-0.13933 0.5-0.3125 0.5h-4.375a0.31187 0.499 0 0 1-0.3125-0.5v-1c0-0.277 0.13934-0.5 0.3125-0.5zm0 4h4.375c0.17314 0 0.3125 0.223 0.3125 0.5v1c0 0.277-0.13933 0.5-0.3125 0.5h-4.375a0.31187 0.499 0 0 1-0.3125-0.5v-1c0-0.277 0.13934-0.5 0.3125-0.5zm0 4h4.375c0.17314 0 0.3125 0.223 0.3125 0.5v1c0 0.277-0.13933 0.5-0.3125 0.5h-4.375a0.31187 0.499 0 0 1-0.3125-0.5v-1c0-0.277 0.13934-0.5 0.3125-0.5z"/><path d="m736.1 3328.9h4.375c0.17314 0 0.3125 0.223 0.3125 0.5v1c0 0.277-0.13934 0.5-0.3125 0.5h-4.375a0.31187 0.499 0 0 1-0.3125-0.5v-1c0-0.277 0.13934-0.5 0.3125-0.5zm0 4h4.375c0.17314 0 0.3125 0.223 0.3125 0.5v1c0 0.277-0.13934 0.5-0.3125 0.5h-4.375a0.31187 0.499 0 0 1-0.3125-0.5v-1c0-0.277 0.13934-0.5 0.3125-0.5zm0 4h4.375c0.17314 0 0.3125 0.223 0.3125 0.5v1c0 0.277-0.13934 0.5-0.3125 0.5h-4.375a0.31187 0.499 0 0 1-0.3125-0.5v-1c0-0.277 0.13934-0.5 0.3125-0.5z"/><path d="m729.1 3328.9h4.375c0.17314 0 0.3125 0.223 0.3125 0.5v1c0 0.277-0.13933 0.5-0.3125 0.5h-4.375a0.31187 0.499 0 0 1-0.3125-0.5v-1c0-0.277 0.13934-0.5 0.3125-0.5zm0 4h4.375c0.17314 0 0.3125 0.223 0.3125 0.5v1c0 0.277-0.13933 0.5-0.3125 0.5h-4.375a0.31187 0.499 0 0 1-0.3125-0.5v-1c0-0.277 0.13934-0.5 0.3125-0.5zm0 4h4.375c0.17314 0 0.3125 0.223 0.3125 0.5v1c0 0.277-0.13933 0.5-0.3125 0.5h-4.375a0.31187 0.499 0 0 1-0.3125-0.5v-1c0-0.277 0.13934-0.5 0.3125-0.5z"/><path d="m736.1 3328.9h4.375c0.17314 0 0.3125 0.223 0.3125 0.5v1c0 0.277-0.13934 0.5-0.3125 0.5h-4.375a0.31187 0.499 0 0 1-0.3125-0.5v-1c0-0.277 0.13934-0.5 0.3125-0.5zm0 4h4.375c0.17314 0 0.3125 0.223 0.3125 0.5v1c0 0.277-0.13934 0.5-0.3125 0.5h-4.375a0.31187 0.499 0 0 1-0.3125-0.5v-1c0-0.277 0.13934-0.5 0.3125-0.5zm0 4h4.375c0.17314 0 0.3125 0.223 0.3125 0.5v1c0 0.277-0.13934 0.5-0.3125 0.5h-4.375a0.31187 0.499 0 0 1-0.3125-0.5v-1c0-0.277 0.13934-0.5 0.3125-0.5z"/></g></g></svg>
