<?xml version="1.0" encoding="UTF-8"?>
<svg width="16px" height="16px" version="1.1" viewBox="0 0 16 16" xmlns="http://www.w3.org/2000/svg"><filter id="a" x="0" y="0" width="1" height="1"><feColorMatrix in="SourceGraphic" values="0 0 0 0 1 0 0 0 0 1 0 0 0 0 1 0 0 0 1 0"/></filter><mask id="b"><g filter="url(#a)"><path d="m0 0h16v16h-16z" fill-opacity=".3"/></g></mask><clipPath id="c"><path d="m0 0h1024v800h-1024z"/></clipPath><mask id="d"><g filter="url(#a)"><path d="m0 0h16v16h-16z" fill-opacity=".05"/></g></mask><clipPath id="e"><path d="m0 0h1024v800h-1024z"/></clipPath><mask id="f"><g filter="url(#a)"><path d="m0 0h16v16h-16z" fill-opacity=".05"/></g></mask><clipPath id="g"><path d="m0 0h1024v800h-1024z"/></clipPath><mask id="h"><g filter="url(#a)"><path d="m0 0h16v16h-16z" fill-opacity=".05"/></g></mask><clipPath id="i"><path d="m0 0h1024v800h-1024z"/></clipPath><mask id="j"><g filter="url(#a)"><path d="m0 0h16v16h-16z" fill-opacity=".05"/></g></mask><clipPath id="k"><path d="m0 0h1024v800h-1024z"/></clipPath><mask id="l"><g filter="url(#a)"><path d="m0 0h16v16h-16z" fill-opacity=".05"/></g></mask><clipPath id="m"><path d="m0 0h1024v800h-1024z"/></clipPath><mask id="n"><g filter="url(#a)"><path d="m0 0h16v16h-16z" fill-opacity=".05"/></g></mask><clipPath id="o"><path d="m0 0h1024v800h-1024z"/></clipPath><mask id="p"><g filter="url(#a)"><path d="m0 0h16v16h-16z" fill-opacity=".3"/></g></mask><clipPath id="q"><path d="m0 0h1024v800h-1024z"/></clipPath><mask id="r"><g filter="url(#a)"><path d="m0 0h16v16h-16z" fill-opacity=".5"/></g></mask><clipPath id="s"><path d="m0 0h1024v800h-1024z"/></clipPath><g transform="translate(-768.79 -3165.9)"><g transform="translate(108 -117)"><g transform="translate(660.8 3282.9)" fill="#2e3436"><path d="m2.384 3h1.231a0.38 0.38 0 0 1 0.385 0.379v1.241a0.38 0.38 0 0 1-0.385 0.38h-1.23a0.38 0.38 0 0 1-0.385-0.379v-1.241a0.38 0.38 0 0 1 0.384-0.38zm0 4.016h1.231a0.38 0.38 0 0 1 0.385 0.378v1.243a0.38 0.38 0 0 1-0.385 0.379h-1.23a0.38 0.38 0 0 1-0.385-0.38v-1.241a0.38 0.38 0 0 1 0.384-0.378zm0 3.984h1.231a0.38 0.38 0 0 1 0.385 0.379v1.242a0.38 0.38 0 0 1-0.385 0.379h-1.23a0.38 0.38 0 0 1-0.385-0.379v-1.241a0.38 0.38 0 0 1 0.384-0.38z" color="#000000" overflow="visible"/><path d="m6.494 3h7c0.277 0 0.5 0.223 0.5 0.5v1c0 0.277-0.223 0.5-0.5 0.5h-7a0.499 0.499 0 0 1-0.5-0.5v-1c0-0.277 0.223-0.5 0.5-0.5zm0 4h7c0.277 0 0.5 0.223 0.5 0.5v1c0 0.277-0.223 0.5-0.5 0.5h-7a0.499 0.499 0 0 1-0.5-0.5v-1c0-0.277 0.223-0.5 0.5-0.5zm0 4h7c0.277 0 0.5 0.223 0.5 0.5v1c0 0.277-0.223 0.5-0.5 0.5h-7a0.499 0.499 0 0 1-0.5-0.5v-1c0-0.277 0.223-0.5 0.5-0.5z"/></g></g></g></svg>
