<?xml version="1.0" encoding="UTF-8"?>
<svg width="16px" height="16px" version="1.1" viewBox="0 0 16 16" xmlns="http://www.w3.org/2000/svg"><filter id="a" x="0" y="0" width="1" height="1"><feColorMatrix in="SourceGraphic" values="0 0 0 0 1 0 0 0 0 1 0 0 0 0 1 0 0 0 1 0"/></filter><mask id="b"><g filter="url(#a)"><path d="m0 0h16v16h-16z" fill-opacity=".3"/></g></mask><clipPath id="c"><path d="m0 0h1024v800h-1024z"/></clipPath><mask id="d"><g filter="url(#a)"><path d="m0 0h16v16h-16z" fill-opacity=".05"/></g></mask><clipPath id="e"><path d="m0 0h1024v800h-1024z"/></clipPath><mask id="f"><g filter="url(#a)"><path d="m0 0h16v16h-16z" fill-opacity=".05"/></g></mask><clipPath id="g"><path d="m0 0h1024v800h-1024z"/></clipPath><mask id="h"><g filter="url(#a)"><path d="m0 0h16v16h-16z" fill-opacity=".05"/></g></mask><clipPath id="i"><path d="m0 0h1024v800h-1024z"/></clipPath><mask id="j"><g filter="url(#a)"><path d="m0 0h16v16h-16z" fill-opacity=".05"/></g></mask><clipPath id="k"><path d="m0 0h1024v800h-1024z"/></clipPath><mask id="l"><g filter="url(#a)"><path d="m0 0h16v16h-16z" fill-opacity=".05"/></g></mask><clipPath id="m"><path d="m0 0h1024v800h-1024z"/></clipPath><mask id="n"><g filter="url(#a)"><path d="m0 0h16v16h-16z" fill-opacity=".05"/></g></mask><clipPath id="o"><path d="m0 0h1024v800h-1024z"/></clipPath><mask id="p"><g filter="url(#a)"><path d="m0 0h16v16h-16z" fill-opacity=".3"/></g></mask><clipPath id="q"><path d="m0 0h1024v800h-1024z"/></clipPath><mask id="r"><g filter="url(#a)"><path d="m0 0h16v16h-16z" fill-opacity=".5"/></g></mask><clipPath id="s"><path d="m0 0h1024v800h-1024z"/></clipPath><g transform="translate(-768.79 -3387.9)"><path d="m771.79 3388.9c-1.0907 0-2 0.9093-2 2v10c0 1.0907 0.9093 2 2 2h10c1.0907 0 2-0.9093 2-2v-10c0-1.0907-0.9093-2-2-2zm0 4h10v8h-10z" color="#bebebe" fill="#2e3436"/></g><rect x="11" y="6.0003" width="1" height="4" rx=".5" ry=".5" fill="#2e3436"/></svg>
